<svg width="142" height="40" viewBox="0 0 142 40" fill="none" xmlns="http://www.w3.org/2000/svg">
  <path d="M28.4491 12.9406V15.4506C28.4491 16.1606 27.7291 16.6206 27.0591 16.3706C26.2191 16.0606 25.2891 15.9406 24.3091 16.0406C21.9291 16.3006 19.4891 18.5906 19.0891 20.9606C18.7591 22.9306 19.3891 24.7706 20.5991 26.0706C21.1491 26.6706 20.7791 27.6406 19.9691 27.7306C19.2791 27.8106 18.5991 27.7906 18.2191 27.5106L12.7191 23.4006C12.0691 22.9106 11.5391 21.8506 11.5391 21.0306V12.9406C11.5391 11.8106 12.3991 10.5706 13.4491 10.1706L18.9491 8.11062C19.5191 7.90063 20.4591 7.90063 21.0291 8.11062L26.5291 10.1706C27.5891 10.5706 28.4491 11.8106 28.4491 12.9406Z" fill="white"/>
  <path d="M25 17.5117C22.52 17.5117 20.5 19.5317 20.5 22.0117C20.5 24.4917 22.52 26.5117 25 26.5117C27.48 26.5117 29.5 24.4917 29.5 22.0117C29.5 19.5217 27.48 17.5117 25 17.5117Z" fill="white"/>
  <path d="M30 28.0009C29.73 28.0009 29.48 27.8909 29.29 27.7109C29.25 27.6609 29.2 27.6109 29.17 27.5509C29.13 27.5009 29.1 27.4409 29.08 27.3809C29.05 27.3209 29.03 27.2609 29.02 27.2009C29.01 27.1309 29 27.0709 29 27.0009C29 26.8709 29.03 26.7409 29.08 26.6209C29.13 26.4909 29.2 26.3909 29.29 26.2909C29.52 26.0609 29.87 25.9509 30.19 26.0209C30.26 26.0309 30.32 26.0509 30.38 26.0809C30.44 26.1009 30.5 26.1309 30.55 26.1709C30.61 26.2009 30.66 26.2509 30.71 26.2909C30.8 26.3909 30.87 26.4909 30.92 26.6209C30.97 26.7409 31 26.8709 31 27.0009C31 27.2609 30.89 27.5209 30.71 27.7109C30.66 27.7509 30.61 27.7909 30.55 27.8309C30.5 27.8709 30.44 27.9009 30.38 27.9209C30.32 27.9509 30.26 27.9709 30.19 27.9809C30.13 27.9909 30.06 28.0009 30 28.0009Z" fill="white"/>
  <path d="M46.92 15.432C46.92 17.4 46.37 18.936 45.27 20.04C44.186 21.144 42.682 21.696 40.76 21.696C38.822 21.696 37.302 21.144 36.2 20.04C35.114 18.936 34.57 17.392 34.57 15.408C34.57 13.424 35.114 11.88 36.2 10.776C37.302 9.672 38.83 9.12 40.784 9.12C42.738 9.12 44.25 9.672 45.318 10.776C46.386 11.88 46.92 13.432 46.92 15.432ZM37.574 15.432C37.574 16.728 37.862 17.728 38.438 18.432C39.014 19.12 39.79 19.464 40.766 19.464C42.718 19.464 43.694 18.12 43.694 15.432C43.694 12.728 42.726 11.376 40.79 11.376C39.814 11.376 39.03 11.72 38.438 12.408C37.862 13.096 37.574 14.104 37.574 15.432Z" fill="white"/>
  <path d="M53.932 15.248L56.852 9.36H60.06L55.268 17.952L60.252 26.76H56.94L53.956 20.928L51.012 26.76H47.78L52.668 17.952L47.924 9.36H51.108L53.932 15.248Z" fill="white"/>
  <path d="M67.272 9.36H70.252V24.336H78.58V26.76H67.272V9.36Z" fill="white"/>
  <path d="M85.6638 9.36C87.9271 9.36 89.6958 9.864 90.9698 10.872C92.2598 11.864 92.9048 13.264 92.9048 15.072C92.9048 16.896 92.2518 18.32 90.9458 19.344C89.6558 20.368 87.8958 20.88 85.6638 20.88H83.3688V26.76H80.3888V9.36H85.6638ZM85.5718 18.408C86.9431 18.408 87.9751 18.144 88.6678 17.616C89.3604 17.072 89.7068 16.24 89.7068 15.12C89.7068 14.016 89.3604 13.2 88.6678 12.672C87.9751 12.144 86.9431 11.88 85.5718 11.88H83.3688V18.408H85.5718Z" fill="white"/>
  <path d="M104.91 9.36H107.89V24.336H116.218V26.76H104.91V9.36Z" fill="white"/>
  <path d="M132.522 9.36V26.76H129.542V19.296H121.742V26.76H118.762V9.36H121.742V16.824H129.542V9.36H132.522Z" fill="white"/>
  <path d="M139.934 9.36L142.398 17.496L144.558 9.36H147.538L143.87 20.112V26.76H140.89V20.112L137.222 9.36H139.934Z" fill="white"/>
</svg> 