<svg width="1200" height="630" viewBox="0 0 1200 630" fill="none" xmlns="http://www.w3.org/2000/svg">
  <rect width="1200" height="630" fill="#1E293B"/>
  <path d="M600 315C655.228 315 700 270.228 700 215C700 159.772 655.228 115 600 115C544.772 115 500 159.772 500 215C500 270.228 544.772 315 600 315Z" fill="#3B82F6" fill-opacity="0.2"/>
  <path d="M716.377 315.014C763.669 333.059 797.5 379.167 797.5 433.125C797.5 502.665 740.665 559.5 671.125 559.5H528.875C459.335 559.5 402.5 502.665 402.5 433.125C402.5 379.167 436.331 333.059 483.623 315.014C510.216 338.277 545.556 352.25 585 352.25H615C654.444 352.25 689.784 338.277 716.377 315.014Z" fill="#3B82F6" fill-opacity="0.2"/>
  <path d="M565.2 400.4H634.8M565.2 430H634.8M565.2 459.6H634.8" stroke="#CBD5E1" stroke-width="12" stroke-linecap="round" stroke-linejoin="round"/>
  <path d="M394 159.875C394 142.676 407.926 128.75 425.125 128.75H774.875C792.074 128.75 806 142.676 806 159.875V223.125C806 240.324 792.074 254.25 774.875 254.25H425.125C407.926 254.25 394 240.324 394 223.125V159.875Z" stroke="#CBD5E1" stroke-width="12"/>
  <path d="M394 297.875C394 280.676 407.926 266.75 425.125 266.75H774.875C792.074 266.75 806 280.676 806 297.875V361.125C806 378.324 792.074 392.25 774.875 392.25H425.125C407.926 392.25 394 378.324 394 361.125V297.875Z" stroke="#CBD5E1" stroke-width="12"/>
  <path d="M394 435.875C394 418.676 407.926 404.75 425.125 404.75H774.875C792.074 404.75 806 418.676 806 435.875V499.125C806 516.324 792.074 530.25 774.875 530.25H425.125C407.926 530.25 394 516.324 394 499.125V435.875Z" stroke="#CBD5E1" stroke-width="12"/>
</svg> 